#!OML:ASF I:\Actors\actors\Patient Classification 1\Patient 1\Session 1\Subject1.ASF
:FULLY-SPECIFIED
:DEGREES
1156
root 0.530632 17.4459 9.28287 10.3461 -2.75175 -9.09553
lowerback -1.24399 1.81905 6.30659
upperback -8.8788 2.85995 2.64245
thorax -8.51385 1.06035 -0.890877
lowerneck -6.58983 1.07734 2.42118
upperneck 14.0278 1.21329 -0.275734
head 5.32391 0.702565 -0.405121
rclavicle -5.82688e-015 1.63997e-015
rhumerus -55.0883 -32.0227 -55.6169
rradius 18.1727
rwrist 55.2616
rhand 6.54556 -28.9468
rfingers 7.12502
rthumb 31.843 -56.1841
lclavicle -5.82688e-015 1.63997e-015
lhumerus -51.4267 28.9085 63.9582
lradius 15.1784
lwrist -39.8516
lhand -18.3436 -9.70999
lfingers 7.12502
lthumb 7.93876 20.1209
rfemur -5.08169 24.193 25.4498
rtibia 2.55213
rfoot -11.2113 -22.8672
rtoes 3.36789
lfemur 6.96211 -50.3398 -13.3245
ltibia -4.81078
lfoot -34.0434 57.5475
ltoes 19.8173
1157
root 0.526969 17.4449 9.286 10.3849 -2.78559 -9.09071
lowerback -1.25341 1.83288 6.26695
upperback -8.88764 2.87653 2.63835
thorax -8.51809 1.07109 -0.873991
lowerneck -6.60894 1.04441 2.45138
upperneck 14.0031 1.15263 -0.194784
head 5.31853 0.679675 -0.388779
rclavicle 1.35298e-014 -5.60076e-014
rhumerus -55.0336 -32.0053 -55.6678
rradius 18.1746
rwrist 55.1177
rhand 6.50859 -28.8826
rfingers 7.12502
rthumb 31.8078 -56.1269
lclavicle 1.35298e-014 -5.60076e-014
lhumerus -51.5009 29.0504 63.8101
lradius 15.1179
lwrist -40.0706
lhand -18.2995 -9.87803
lfingers 7.12502
lthumb 7.98124 19.9513
rfemur -5.13363 24.1081 25.4261
rtibia 2.52124
rfoot -11.1608 -22.7635
rtoes 3.17246
lfemur 6.97366 -50.3939 -13.3234
ltibia -4.83713
lfoot -34.0317 57.6636
ltoes 19.7908
1158
root 0.522037 17.4446 9.28985 10.394 -2.84632 -9.10525
lowerback -1.21692 1.84588 6.24164
upperback -8.90506 2.89693 2.6302
thorax -8.55804 1.08124 -0.871068
lowerneck -6.64119 1.0512 2.57189
upperneck 14.0911 1.13422 -0.113983
head 5.35175 0.683015 -0.384283
rclavicle 9.36773e-015 -4.62174e-014
rhumerus -55.0421 -32.0458 -55.645
rradius 18.162
rwrist 55.1049
rhand 6.43805 -28.8045
rfingers 7.12502
rthumb 31.7406 -56.0621
lclavicle 9.36773e-015 -4.62174e-014
lhumerus -51.5459 28.9479 63.8388
lradius 15.1272
lwrist -40.089
lhand -18.3054 -10.0138
lfingers 7.12502
lthumb 7.97557 19.8157
rfemur -5.17065 23.9911 25.4464
rtibia 2.54444
rfoot -11.095 -22.6335
rtoes 2.92365
lfemur 7.15856 -50.6667 -13.449
ltibia -4.86429
lfoot -34.565 57.876
ltoes 20.0526
1159
root 0.516422 17.4443 9.29437 10.3975 -2.90647 -9.10218
lowerback -1.1988 1.83691 6.1888
upperback -8.9192 2.88569 2.63541
thorax -8.587 1.07879 -0.83647
lowerneck -6.73204 1.12578 2.61667
upperneck 14.3248 1.19471 0.102952
head 5.44025 0.73162 -0.318963
rclavicle -6.37353e-015 -3.27995e-015
rhumerus -54.9989 -31.9516 -55.7537
rradius 18.2161
rwrist 55.0331
rhand 6.4338 -28.8642
rfingers 7.12502
rthumb 31.7366 -56.1226
lclavicle -6.37353e-015 -3.27995e-015
lhumerus -51.6264 28.8013 63.9122
lradius 15.2028
lwrist -39.9759
lhand -18.2911 -10.0097
lfingers 7.12502
lthumb 7.98935 19.8193
rfemur -5.1825 23.9122 25.4598
rtibia 2.57982
rfoot -11.0456 -22.5115
rtoes 2.85516
lfemur 7.43735 -51.1438 -13.7014
ltibia -4.83029
lfoot -35.8288 58.0766
ltoes 20.835
1160
root 0.509417 17.4437 9.29921 10.4174 -2.94701 -9.11954
lowerback -1.24091 1.80812 6.1367
upperback -8.92077 2.84328 2.6674
thorax -8.5698 1.06361 -0.770175
lowerneck -6.84516 1.22844 2.53548
upperneck 14.5501 1.28922 0.443417
head 5.52871 0.799048 -0.19153
rclavicle -4.72486e-014 1.78906e-014
rhumerus -54.8259 -31.6972 -56.059
rradius 18.2655
rwrist 54.8075
rhand 6.38047 -28.9983
rfingers 7.12502
rthumb 31.6858 -56.2668
lclavicle -4.72486e-014 1.78906e-014
lhumerus -51.6393 28.5584 64.1351
lradius 15.3014
lwrist -39.6056
lhand -18.1409 -9.9699
lfingers 7.12502
lthumb 8.13434 19.8535
rfemur -5.15863 23.9478 25.5032
rtibia 2.52931
rfoot -11.0093 -22.4835
rtoes 2.97281
lfemur 7.67544 -51.5558 -13.8753
ltibia -4.80954
lfoot -37.0084 58.1954
ltoes 21.6211
1161
root 0.502098 17.4437 9.30296 10.4396 -2.98697 -9.19798
lowerback -1.26751 1.79541 6.17229
upperback -8.92792 2.82676 2.6895
thorax -8.56327 1.05379 -0.764668
lowerneck -6.94089 1.33604 2.53261
upperneck 14.7385 1.38415 0.758467
head 5.60325 0.869287 -0.0846059
rclavicle 3.72721e-016 -3.52843e-014
rhumerus -54.7558 -31.6177 -56.2021
rradius 18.2557
rwrist 54.7822
rhand 6.23716 -29.0068
rfingers 7.12502
rthumb 31.5493 -56.3021
lclavicle 3.72721e-016 -3.52843e-014
lhumerus -51.5607 28.1332 64.4945
lradius 15.3939
lwrist -39.0646
lhand -17.9783 -9.99049
lfingers 7.12502
lthumb 8.29126 19.8268
rfemur -5.15127 23.8926 25.6133
rtibia 2.4912
rfoot -10.9578 -22.3605
rtoes 2.9641
lfemur 7.86516 -51.8277 -13.9055
ltibia -4.85843
lfoot -37.3516 58.4427
ltoes 21.5987
1162
root 0.493848 17.4442 9.3062 10.4685 -3.03832 -9.30535
lowerback -1.27887 1.80857 6.2632
upperback -8.94454 2.84783 2.69434
thorax -8.57156 1.05706 -0.810508
lowerneck -7.02245 1.45906 2.63385
upperneck 14.9277 1.4992 0.987601
head 5.67722 0.949478 -0.0199648
rclavicle -2.93207e-015 -5.96354e-016
rhumerus -54.8275 -31.7704 -56.0957
rradius 18.2313
rwrist 54.9854
rhand 6.16653 -28.9179
rfingers 7.12502
rthumb 31.482 -56.2263
lclavicle -2.93207e-015 -5.96354e-016
lhumerus -51.5808 28.0061 64.488
lradius 15.3872
lwrist -39.0225
lhand -17.9647 -10.095
lfingers 7.12502
lthumb 8.30437 19.7218
rfemur -5.18286 23.7655 25.7565
rtibia 2.50828
rfoot -10.9022 -22.1676
rtoes 2.77324
lfemur 8.00636 -51.9946 -13.8443
ltibia -4.93046
lfoot -37.4536 58.6665
ltoes 21.4281
1163
root 0.483282 17.4442 9.31025 10.5148 -3.06976 -9.37767
lowerback -1.33599 1.84228 6.32932
upperback -8.96089 2.89001 2.67807
thorax -8.55081 1.0726 -0.864633
lowerneck -7.11253 1.57211 2.6039
upperneck 15.1275 1.60042 1.32142
head 5.75364 1.02379 0.0986584
rclavicle -7.61594e-015 1.02374e-014
rhumerus -54.8827 -31.9194 -55.9958
rradius 18.2069
rwrist 55.0637
rhand 6.14928 -28.8597
rfingers 7.12502
rthumb 31.4656 -56.1714
lclavicle -7.61594e-015 1.02374e-014
lhumerus -51.6391 28.1188 64.2396
lradius 15.2983
lwrist -39.3504
lhand -18.0096 -10.0871
lfingers 7.12502
lthumb 8.26111 19.7314
rfemur -5.21568 23.6794 25.8668
rtibia 2.50275
rfoot -10.8439 -22.0519
rtoes 2.58333
lfemur 8.11244 -52.1856 -13.8004
ltibia -4.97145
lfoot -37.9264 58.7772
ltoes 21.6336
1164
root 0.471269 17.4431 9.31338 10.5783 -3.09647 -9.38939
lowerback -1.40333 1.86323 6.32095
upperback -8.98656 2.91126 2.65023
thorax -8.53716 1.08257 -0.888433
lowerneck -7.14691 1.68488 2.58737
upperneck 15.2642 1.70638 1.6238
head 5.80078 1.09835 0.205091
rclavicle 2.62023e-014 -1.26228e-014
rhumerus -54.8457 -31.9227 -56.0585
rradius 18.1868
rwrist 54.949
rhand 6.18867 -28.8749
rfingers 7.12502
rthumb 31.5031 -56.1793
lclavicle 2.62023e-014 -1.26228e-014
lhumerus -51.7677 28.3842 63.8304
lradius 15.1936
lwrist -39.8686
lhand -18.0873 -9.95711
lfingers 7.12502
lthumb 8.18611 19.8643
rfemur -5.27954 23.5432 25.894
rtibia 2.48448
rfoot -10.764 -21.9007
rtoes 2.3065
lfemur 8.13795 -52.356 -13.7781
ltibia -4.97469
lfoot -38.4613 58.8558
ltoes 21.8764
1165
root 0.457923 17.4428 9.31608 10.6284 -3.1756 -9.37296
lowerback -1.42401 1.85812 6.263
upperback -9.01485 2.90052 2.62901
thorax -8.55764 1.0796 -0.877754
lowerneck -7.13095 1.81914 2.77811
upperneck 15.3507 1.84914 1.71502
head 5.82774 1.1865 0.213132
rclavicle 5.2181e-016 2.37548e-014
rhumerus -54.8101 -31.9194 -56.1321
rradius 18.1727
rwrist 54.9312
rhand 6.26681 -28.8719
rfingers 7.12502
rthumb 31.5775 -56.1617
lclavicle 5.2181e-016 2.37548e-014
lhumerus -52.0271 28.8056 63.2185
lradius 15.108
lwrist -40.5251
lhand -18.2395 -9.86938
lfingers 7.12502
lthumb 8.0392 19.9577
rfemur -5.3424 23.5154 25.8907
rtibia 2.48338
rfoot -10.7226 -21.7915
rtoes 2.002
lfemur 8.19297 -52.5344 -13.8193
ltibia -4.96853
lfoot -39.1166 58.9736
ltoes 22.1954
1166
root 0.443234 17.4445 9.31976 10.646 -3.24599 -9.41709
lowerback -1.3845 1.86819 6.29005
upperback -9.04216 2.9194 2.61747
thorax -8.60873 1.08439 -0.907328
lowerneck -7.24609 1.92638 2.90477
upperneck 15.599 1.94943 1.84312
head 5.92702 1.25597 0.242997
rclavicle 1.93567e-014 7.15625e-015
rhumerus -54.8505 -31.9086 -56.189
rradius 18.2068
rwrist 54.8845
rhand 6.30793 -28.8611
rfingers 7.12502
rthumb 31.6167 -56.1432
lclavicle 1.93567e-014 7.15625e-015
lhumerus -52.1672 28.9655 62.8719
lradius 15.0508
lwrist -40.8289
lhand -18.2894 -9.87626
lfingers 7.12502
lthumb 7.99099 19.9527
rfemur -5.33613 23.62 25.9937
rtibia 2.47448
rfoot -10.7096 -21.8038
rtoes 1.92529
lfemur 8.32499 -52.7571 -13.8479
ltibia -4.95795
lfoot -39.6635 59.1817
ltoes 22.3094
1167
root 0.427665 17.4452 9.32483 10.6689 -3.25219 -9.52436
lowerback -1.38017 1.88012 6.39363
upperback -9.07505 2.9424 2.62947
thorax -8.64424 1.08694 -0.953265
lowerneck -7.50371 2.00823 2.81374
upperneck 16.0694 2.01002 2.11877
head 6.11675 1.30882 0.356161
rclavicle 7.10655e-015 1.31198e-014
rhumerus -54.8967 -31.7874 -56.308
rradius 18.2803
rwrist 54.6557
rhand 6.28422 -28.8108
rfingers 7.12502
rthumb 31.5941 -56.0973
lclavicle 7.10655e-015 1.31198e-014
lhumerus -52.2352 28.9689 62.717
lradius 15.0064
lwrist -40.9433
lhand -18.1816 -9.9206
lfingers 7.12502
lthumb 8.09509 19.9044
rfemur -5.30442 23.6147 26.1893
rtibia 2.44328
rfoot -10.6713 -21.7631
rtoes 1.98078
lfemur 8.33999 -52.7403 -13.6778
ltibia -4.95761
lfoot -39.6411 59.2382
ltoes 22.0871
1168
root 0.411526 17.4446 9.32953 10.7049 -3.27957 -9.61923
lowerback -1.46218 1.88279 6.47067
upperback -9.06941 2.94191 2.65315
thorax -8.58883 1.08364 -0.96779
lowerneck -7.792 2.09544 2.725
upperneck 16.5476 2.0866 2.32367
head 6.31555 1.36491 0.449288
rclavicle 4.5969e-015 5.80451e-014
rhumerus -54.8381 -31.6976 -56.4341
rradius 18.2973
rwrist 54.4858
rhand 6.20789 -28.653
rfingers 7.12502
rthumb 31.5214 -55.9537
lclavicle 4.5969e-015 5.80451e-014
lhumerus -52.3331 29.2234 62.3974
lradius 14.9342
lwrist -41.3418
lhand -18.1748 -9.80394
lfingers 7.12502
lthumb 8.10168 20.0208
rfemur -5.31377 23.5119 26.3543
rtibia 2.43052
rfoot -10.6273 -21.6109
rtoes 1.96606
lfemur 8.30994 -52.6406 -13.4813
ltibia -4.94941
lfoot -39.8081 59.1346
ltoes 22.1377
